<?xml version="1.0" encoding="UTF-8" standalone="no"?>
<!DOCTYPE svg PUBLIC "-//W3C//DTD SVG 1.1//EN" "http://www.w3.org/Graphics/SVG/1.1/DTD/svg11.dtd">
<svg width="100%" height="100%" viewBox="0 0 18 25" version="1.1" xmlns="http://www.w3.org/2000/svg" xmlns:xlink="http://www.w3.org/1999/xlink" xml:space="preserve" xmlns:serif="http://www.serif.com/" style="fill-rule:evenodd;clip-rule:evenodd;stroke-linejoin:round;stroke-miterlimit:2;">
    <g transform="matrix(1,0,0,1,-0.0211268,1.25096e-15)">
        <g transform="matrix(0.78125,0,0,0.78125,-10.9219,0)">
            <path d="M25.5,0C31.848,0 36.993,5.161 36.993,11.526C36.993,11.526 36.993,25.417 25.5,32C14.007,25.417 14.007,11.526 14.007,11.526C14.007,5.161 19.152,-0 25.5,-0Z" style="fill:rgb(102,126,47);fill-rule:nonzero;"/>
            <path d="M23.64,30.803L24.388,29.765C24.709,29.995 25.041,30.22 25.385,30.437L25.238,30.669C25.556,30.478 25.864,30.281 26.162,30.079L26.88,31.138C26.533,31.374 26.173,31.603 25.8,31.825L25.174,30.771L24.701,31.519C24.336,31.288 23.982,31.05 23.64,30.803ZM28.907,29.576C28.59,29.853 28.26,30.124 27.917,30.388L27.136,29.375C27.458,29.127 27.767,28.872 28.065,28.612L28.907,29.576ZM21.659,29.186L22.527,28.246C22.817,28.514 23.12,28.777 23.434,29.034L22.625,30.025C22.29,29.751 21.967,29.471 21.659,29.186ZM30.727,27.779C30.446,28.093 30.152,28.402 29.844,28.705L28.945,27.795C29.234,27.51 29.51,27.219 29.775,26.924L30.727,27.779ZM19.888,27.339L20.864,26.51C21.12,26.812 21.389,27.11 21.67,27.404L20.745,28.289C20.447,27.977 20.162,27.661 19.888,27.339ZM32.32,25.777C32.078,26.122 31.822,26.464 31.553,26.801L30.552,26.005C30.805,25.686 31.046,25.364 31.274,25.04L32.32,25.777ZM18.349,25.295L19.414,24.585C19.634,24.915 19.867,25.244 20.112,25.569L19.089,26.339C18.829,25.994 18.583,25.646 18.349,25.295ZM33.676,23.607C33.473,23.975 33.257,24.344 33.028,24.711L31.942,24.033C32.159,23.686 32.363,23.337 32.555,22.989L33.676,23.607ZM17.048,23.092L18.183,22.501C18.367,22.854 18.563,23.208 18.771,23.561L17.669,24.211C17.449,23.839 17.243,23.465 17.048,23.092ZM34.794,21.305C34.63,21.691 34.454,22.08 34.265,22.47L33.113,21.911C33.293,21.54 33.461,21.171 33.617,20.804L34.794,21.305ZM15.983,20.765L17.171,20.29C17.319,20.66 17.478,21.034 17.65,21.409L16.486,21.942C16.306,21.547 16.138,21.154 15.983,20.765ZM35.683,18.906C35.557,19.302 35.419,19.706 35.267,20.116L34.067,19.672C34.211,19.281 34.343,18.895 34.464,18.517L35.683,18.906ZM15.146,18.347L16.373,17.984C16.485,18.363 16.609,18.752 16.746,19.147L15.537,19.565C15.393,19.151 15.263,18.744 15.146,18.347ZM36.35,16.435C36.261,16.834 36.159,17.249 36.044,17.678L34.808,17.344C34.919,16.935 35.016,16.537 35.101,16.156L36.35,16.435ZM14.528,15.863L15.783,15.609C15.86,15.99 15.949,16.389 16.052,16.803L14.81,17.112C14.702,16.679 14.609,16.261 14.528,15.863ZM36.798,13.915C36.747,14.301 36.683,14.724 36.602,15.18L35.342,14.956C35.419,14.521 35.481,14.116 35.529,13.748L36.798,13.915ZM14.131,13.335L15.404,13.195C15.443,13.553 15.496,13.959 15.566,14.405L14.301,14.604C14.228,14.136 14.173,13.711 14.131,13.335ZM36.991,11.364L36.993,11.526C36.993,11.526 36.993,11.934 36.934,12.643L36.82,12.633L36.926,12.74L36.921,12.804C36.684,12.791 36.465,12.714 36.28,12.589L35.659,12.539C35.707,11.956 35.713,11.529 35.713,11.529L35.713,11.529L35.712,11.382L36.991,11.364ZM14.032,10.781L15.308,10.862C15.294,11.081 15.287,11.303 15.287,11.526L15.303,11.992L14.026,12.06C14.007,11.715 14.007,11.526 14.007,11.526C14.007,11.275 14.015,11.027 14.032,10.781ZM36.676,8.829C36.775,9.241 36.851,9.661 36.904,10.088L35.634,10.246C35.587,9.866 35.519,9.493 35.432,9.127L36.676,8.829ZM14.475,8.265L15.702,8.625C15.596,8.986 15.509,9.355 15.443,9.732L14.183,9.51C14.257,9.086 14.355,8.671 14.475,8.265ZM35.809,6.426C35.997,6.807 36.164,7.2 36.31,7.604L35.106,8.038C34.977,7.679 34.828,7.33 34.661,6.992L35.809,6.426ZM15.463,5.909L16.58,6.532C16.396,6.862 16.23,7.203 16.082,7.554L14.902,7.059C15.068,6.664 15.255,6.28 15.463,5.909ZM34.433,4.274C34.7,4.605 34.95,4.952 35.181,5.312L34.103,6.001C33.898,5.681 33.676,5.373 33.438,5.078L34.433,4.274ZM16.946,3.829L17.899,4.682C17.646,4.965 17.409,5.261 17.188,5.571L16.146,4.828C16.394,4.48 16.661,4.146 16.946,3.829ZM32.618,2.476C32.953,2.741 33.272,3.025 33.575,3.325L32.675,4.234C32.405,3.967 32.121,3.715 31.823,3.479L32.618,2.476ZM18.849,2.125L19.592,3.167C19.283,3.388 18.986,3.625 18.704,3.878L17.851,2.925C18.168,2.64 18.502,2.373 18.849,2.125ZM30.452,1.122C30.838,1.307 31.212,1.513 31.572,1.739L30.894,2.824C30.574,2.623 30.241,2.44 29.898,2.276L30.452,1.122ZM21.082,0.883L21.575,2.064C21.224,2.21 20.883,2.376 20.553,2.56L19.931,1.442C20.302,1.235 20.686,1.048 21.082,0.883ZM28.039,0.283C28.458,0.378 28.869,0.495 29.269,0.635L28.848,1.843C28.493,1.719 28.129,1.615 27.757,1.531L28.039,0.283ZM23.534,0.169L23.752,1.429C23.376,1.494 23.007,1.58 22.646,1.685L22.288,0.457C22.694,0.338 23.11,0.241 23.534,0.169ZM25.5,-0C25.932,0 26.358,0.024 26.777,0.071L26.636,1.343C26.263,1.301 25.884,1.28 25.5,1.28C25.292,1.28 25.086,1.286 24.881,1.298L24.805,0.022L24.909,0.015C25.007,0.011 25.105,0.008 25.203,0.004L25.5,-0Z" style="fill:rgb(158,0,0);"/>
        </g>
    </g>
</svg>
