<svg width="100%" height="100%" viewBox="0 0 18 32" fill="var(--green-b)"> 
    <path d="m 18.000689,23.200072 c 0,4.864016 -4.034371,8.800028 -8.9999802,8.800028 -4.9670964,0 -8.99998,-3.936012 -8.99998,-8.800028 V 6.40002 C 7.288e-4,2.864009 2.9283256,0 6.5461688,0 10.162524,0 13.091609,2.864009 13.091609,6.40002 v 13.600042 c 0,2.208007 -1.832723,4.000013 -4.0909002,4.000013 -2.2581768,0 -4.0909,-1.792006 -4.0909,-4.000013 V 8.000025 h 2.45454 v 12.000037 c 0,0.880003 0.7274364,1.600005 1.63636,1.600005 0.907436,0 1.6363602,-0.720002 1.6363602,-1.600005 V 6.40002 c 0,-2.2080069 -1.834211,-4.0000125 -4.0909002,-4.0000125 -2.2596644,0 -4.0909,1.7920056 -4.0909,4.0000125 v 16.800052 c 0,3.536012 2.9290844,6.400021 6.54544,6.400021 3.6163552,0 6.5454402,-2.864009 6.5454402,-6.400021 V 8.000025 h 2.45454 z"/>
</svg>
