<svg width="100%" height="100%" viewBox="0 0 32 28" style="fill-rule:evenodd;clip-rule:evenodd">
    <path
   d="m 16.00005,11.307599 c 1.322186,0 2.452371,0.474332 3.392011,1.421527 0.938184,0.948664 1.408004,2.089704 1.408004,3.424589 0,1.334885 -0.46982,2.475925 -1.408004,3.424589 -0.93964,0.947195 -2.069825,1.421527 -3.392011,1.421527 -1.322186,0 -2.452371,-0.474332 -3.392011,-1.421527 -0.938184,-0.948664 -1.408004,-2.089704 -1.408004,-3.424589 0,-1.334885 0.46982,-2.475925 1.408004,-3.424589 0.93964,-0.947195 2.069825,-1.421527 3.392011,-1.421527 M 27.733905,4.3071642 c 1.176731,0 2.183279,0.4214652 3.016737,1.2629272 0.833457,0.8414619 1.249458,1.8562092 1.249458,3.0457104 V 23.691628 c 0,1.189501 -0.416001,2.204249 -1.249458,3.045711 -0.833458,0.841462 -1.840006,1.262927 -3.016737,1.262927 H 4.2661951 c -1.1767309,0 -2.1832795,-0.421465 -3.0167367,-1.262927 C 0.4160013,25.895877 0,24.881129 0,23.691628 V 8.6158018 C 0,7.4263006 0.4160013,6.4115533 1.2494584,5.5700914 2.0829156,4.7286294 3.0894642,4.3071642 4.2661951,4.3071642 H 8.000025 L 8.8494822,2.01921 C 9.060392,1.4699835 9.4473023,0.99565156 10.008759,0.59768264 10.570215,0.1982452 11.144762,-5e-6 11.733855,-5e-6 h 8.53239 c 0.589093,0 1.16364,0.1982502 1.725096,0.59768764 0.561457,0.39796892 0.948367,0.87230086 1.159277,1.42152736 l 0.849457,2.2879542 h 3.73383 M 16.00005,23.691628 c 2.055279,0 3.81383,-0.737197 5.275653,-2.211591 1.460368,-1.475863 2.190552,-3.251303 2.190552,-5.326322 0,-2.075019 -0.730184,-3.850459 -2.190552,-5.326322 C 19.81388,9.3529989 18.055329,8.6158018 16.00005,8.6158018 c -2.055279,0 -3.81383,0.7371971 -5.275653,2.2115912 -1.460368,1.475863 -2.1905521,3.251303 -2.1905521,5.326322 0,2.075019 0.7301841,3.850459 2.1905521,5.326322 1.461823,1.474394 3.220374,2.211591 5.275653,2.211591"
   style="fill:#f3f4ef;fill-rule:nonzero;"/>
</svg>
