<svg width="100%" height="100%" viewBox="0 0 128 128" fill="var(--green-a)">
   <path d="M 63.999431,52.686 114.34343,2.342 c 3.122,-3.123 8.191,-3.123 11.313,0 3.123,3.122 3.123,8.191 0,11.313 l -50.343999,50.344 50.343999,50.344 c 3.123,3.122 3.123,8.192 0,11.314 -3.122,3.122 -8.191,3.122 -11.313,0 l -50.343999,-50.344 -50.344,50.344 c -3.122,3.122 -8.1919996,3.122 -11.3139996,0 -3.12200002,-3.122 -3.12200002,-8.192 0,-11.314 L 52.685431,63.999 2.3414314,13.655 c -3.12200002,-3.122 -3.12200002,-8.191 0,-11.313 3.122,-3.123 8.1919996,-3.123 11.3139996,0 z"/>
</svg>
