<svg width="100%" height="100%" viewBox="0 0 256 128">
   <rect x="0" y="0" width="256" height="128" style="fill:#ffffff"/>
   <path d="M 107.15454,39.091455 29.608254,-5.77306e-4 h 77.546286 z" style="fill:#002a7e"/>
   <path d="M 85.826757,43.114823 -3.94612e-4,-5.77306e-4 V 9.6663679 L 66.965819,43.114823 Z" style="fill:#d52126"/>
   <path d="M 57.400019,43.114823 -3.94612e-4,14.732102 v 28.382721 z" style="fill:#002a7e"/>
   <path d="M 107.15454,90.001661 29.608254,127.99982 h 77.546286 z" style="fill:#002a7e"/>
   <path d="M 104.38051,85.715127 H 85.826757 L -3.94612e-4,127.99982 H 19.416848 Z" style="fill:#d52126"/>
   <path d="M 57.400019,85.715127 -3.94612e-4,113.97422 V 85.715127 Z" style="fill:#002a7e"/>
   <path d="M 148.84546,37.997669 226.39175,-4.87306e-4 h -77.54629 z" style="fill:#002a7e"/>
   <path d="m 151.61949,42.284203 h 18.55375 L 256.00039,-4.87306e-4 h -19.41724 z" style="fill:#d52126"/>
   <path d="M 198.59998,42.284203 256.00039,14.025106 V 42.284203 Z" style="fill:#002a7e"/>
   <path d="m 148.84546,88.907875 77.54629,39.092035 h -77.54629 z" style="fill:#002a7e"/>
   <path d="m 170.17324,84.884507 85.82715,43.115403 v -9.66695 L 189.03418,84.884507 Z" style="fill:#d52126"/>
   <path d="m 198.59998,84.884507 57.40041,28.382723 V 84.884507 Z" style="fill:#002a7e"/>
   <path d="M 140.22182,-4.87166e-4 H 115.78567 V 51.216903 H -3.94612e-4 V 76.946411 H 115.78567 v 51.053499 h 24.43615 V 76.946411 H 256.00039 V 51.216903 H 140.22182 Z" style="fill:#d52126"/>
</svg>
