<svg width="100%" height="100%" viewBox="0 0 32 32" fill="var(--green-a)" >
   <path d="m 30.23357,0 c 0.975856,0 1.766676,0.79082047 1.766676,1.7654979 V 30.233856 c 0,0.974678 -0.79082,1.766677 -1.766676,1.766677 H 22.080223 V 19.607869 h 4.159173 l 0.622285,-4.828601 H 22.080223 V 11.69495 c 0,-1.397784 0.387749,-2.351247 2.392497,-2.351247 l 2.557497,-0.00118 V 5.0230653 c -0.441964,-0.05775 -1.959962,-0.1897497 -3.726639,-0.1897497 -3.686567,0 -6.211064,2.2510687 -6.211064,6.3831354 v 3.562817 h -4.170959 v 4.828601 h 4.170959 V 32.000533 H 1.7663901 c -0.97585595,0 -1.76667642,-0.791999 -1.76667642,-1.766677 V 1.7654979 C -2.8632e-4,0.79082047 0.79053415,0 1.7663901,0 Z"/>
</svg>
