<svg width="100%" height="100%" viewBox="0 0 128 128" fill="var(--green-b)">
    <path d="M 9.6,76.8 H 8 c -4.416,0 -8,3.584 -8,8 0,4.416 3.584,8 8,8 H 9.6 V 120 c 0,4.416 3.584,8 8,8 4.416,0 8,-3.584 8,-8 V 92.8 h 1.6 c 4.416,0 8,-3.584 8,-8 0,-4.416 -3.584,-8 -8,-8 H 25.6 V 8 c 0,-4.416 -3.584,-8 -8,-8 -4.416,0 -8,3.584 -8,8 z"/>
    <path d="m 102.4,76.8 h -1.6 c -4.416,0 -8,3.584 -8,8 0,4.416 3.584,8 8,8 h 1.6 V 120 c 0,4.416 3.584,8 8,8 4.416,0 8,-3.584 8,-8 V 92.8 h 1.6 c 4.416,0 8,-3.584 8,-8 0,-4.416 -3.584,-8 -8,-8 h -1.6 V 8 c 0,-4.416 -3.584,-8 -8,-8 -4.416,0 -8,3.584 -8,8 z"/>
   <path d="m 56,51.2 h -1.6 c -4.416,0 -8,-3.584 -8,-8 0,-4.416 3.584,-8 8,-8 H 56 V 8 c 0,-4.416 3.584,-8 8,-8 4.416,0 8,3.584 8,8 v 27.2 h 1.6 c 4.416,0 8,3.584 8,8 0,4.416 -3.584,8 -8,8 H 72 V 120 c 0,4.416 -3.584,8 -8,8 -4.416,0 -8,-3.584 -8,-8 z"/>
</svg>
