<svg width="100%" height="100%" viewBox="0 0 32 32" >
    <path d="m 10.064025,29.004 c 12.076602,0 18.680047,-10.005739 18.680047,-18.680047 0,-0.284572 -0.0057,-0.5668584 -0.01943,-0.8491448 1.282289,-0.9268595 2.396578,-2.0834338 3.275437,-3.4000085 -1.176003,0.522287 -2.442292,0.8742879 -3.770295,1.0342883 1.355432,-0.8137164 2.396577,-2.0994339 2.886864,-3.6320091 -1.268574,0.7520019 -2.673149,1.2982889 -4.16801,1.5931468 -1.19886,-1.2754317 -2.904007,-2.073148 -4.793155,-2.073148 -3.625152,0 -6.565731,2.9394359 -6.565731,6.5645878 0,0.5154295 0.05714,1.0160025 0.170286,1.4971465 C 10.302883,10.783383 5.4651565,8.1708049 2.2274341,4.1982235 1.6628613,5.1685117 1.3382891,6.2953716 1.3382891,7.4988032 c 0,2.27772 1.15886,4.2880108 2.922293,5.4651568 -1.0788599,-0.03314 -2.0891481,-0.329144 -2.9748646,-0.821717 -0.00114,0.02743 -0.00114,0.05486 -0.00114,0.08457 0,3.178294 2.2640057,5.8343 5.2674418,6.434302 -0.5508585,0.152 -1.1314314,0.232 -1.7314329,0.232 -0.4217154,0 -0.833145,-0.04114 -1.233146,-0.118857 0.8354307,2.609149 3.2594368,4.50744 6.1325868,4.560011 -2.2468657,1.76115 -5.076587,2.810295 -8.154309,2.810295 C 1.036574,26.144564 0.514287,26.11485 0,26.054278 2.906293,27.91714 6.3565873,29.004 10.064025,29.004"/>
</svg>
