<svg width="100%" height="100%" viewBox="0 0 32 32" style="fill-rule:evenodd;clip-rule:evenodd;" fill="var(--red)">
  <path d="m 17.590079,0.98422968 c -0.30152,-0.59947742 -0.917023,-0.98527972 -1.590099,-0.98527972 -0.673671,0 -1.289174,0.3858023 -1.590099,0.98527972 L 0.18742719,29.426762 c -0.27540349,0.551994 -0.24631993,1.204891 0.077754,1.733143 0.32407394,0.522317 0.89624841,0.84283 1.51234501,0.84283 H 30.221839 c 0.616097,0 1.188272,-0.320513 1.512345,-0.84283 0.324074,-0.528252 0.353752,-1.181149 0.07775,-1.733143 z M 15.99998,5.7563074 27.345535,28.447418 c 0,0 -22.6917043,0 -22.6917043,0 z"/>
  <path d="m 14.335605,26.490394 v -2.775331 h 3.326805 v 2.775331 z m 0.42195,-5.032778 -0.42195,-6.134945 v -2.310563 h 3.326805 v 2.310563 l -0.404728,6.134945 z"id="path1038" />
</svg>
