<svg width="100%" height="100%" viewBox="0 0 32 32">
    <path d="M 16.058594 0 C 15.360469 0 14.663547 0.24070312 14.123047 0.72070312 C 10.791047 3.6607031 3.9863906 9.6700781 0.40039062 12.830078 C 0.017390625 13.170078 -0.10525 13.690625 0.09375 14.140625 C 0.29275 14.600625 0.7726875 14.890625 1.3046875 14.890625 L 3.1660156 14.890625 L 3.1660156 32 L 28.953125 32 L 28.953125 14.890625 L 30.615234 14.890625 C 31.180234 14.890625 31.689391 14.579609 31.900391 14.099609 C 32.111391 13.619609 31.983172 13.070938 31.576172 12.710938 L 26.966797 8.640625 L 26.966797 2 L 22.966797 2 L 22.966797 5.109375 L 17.996094 0.72070312 C 17.455094 0.24070312 16.756719 0 16.058594 0 z " />
</svg>
