<svg width="100%" height="100%" viewBox="0 0 32 32" style="fill-rule:evenodd;clip-rule:evenodd;fill:var(--white);">
   <path d="m 16.001281,-3.34563e-4 c 8.829395,0 15.997782,7.169401163 15.997782,15.999811563 0,8.830748 -7.168387,16.000149 -15.997782,16.000149 -8.8327777,0 -16.001164,-7.169401 -16.001164,-16.000149 0,-8.8304104 7.1683863,-15.999811563 16.001164,-15.999811563 z m 0,3.999952763 c 6.620355,0 11.999182,5.3771355 11.999182,11.9998588 0,6.623061 -5.378827,12.000196 -11.999182,12.000196 -6.6237375,0 -12.0025644,-5.377135 -12.0025644,-12.000196 0,-6.6227233 5.3788269,-11.9998588 12.0025644,-11.9998588 z"/>
   <path d="M 14.225322,14.225601 H 9.7752421 c -0.9800924,0 -1.7750847,0.801816 -1.7750847,1.782762 0,0.980945 0.7949923,1.774232 1.7750847,1.774232 h 4.4500799 v 4.444109 c 0,0.980945 0.794993,1.774231 1.774232,1.774231 0.980092,0 1.775085,-0.793286 1.775085,-1.774231 v -4.444109 h 4.45008 c 0.980092,0 1.775084,-0.793287 1.775084,-1.774232 0,-0.980946 -0.794992,-1.782762 -1.775084,-1.782762 h -4.45008 V 9.7814921 c 0,-0.9809454 -0.794993,-1.7742317 -1.775085,-1.7742317 -0.979239,0 -1.774232,0.7932863 -1.774232,1.7742317 z"/>
</svg>
