<svg width="100%" height="100%" viewBox="0 0 28 28" fill="var(--green-a)">
  <path d="M 2.1,16.8 H 1.75 C 0.784,16.8 0,17.584 0,18.55 0,19.516 0.784,20.3 1.75,20.3 H 2.1 v 5.95 C 2.1,27.216 2.884,28 3.85,28 4.816,28 5.6,27.216 5.6,26.25 V 20.3 H 5.95 C 6.916,20.3 7.7,19.516 7.7,18.55 7.7,17.584 6.916,16.8 5.95,16.8 H 5.6 V 1.75 C 5.6,0.784 4.816,0 3.85,0 2.884,0 2.1,0.784 2.1,1.75 Z"/>
  <path d="m 22.4,16.8 h -0.35 c -0.966,0 -1.75,0.784 -1.75,1.75 0,0.966 0.784,1.75 1.75,1.75 h 0.35 v 5.95 c 0,0.966 0.784,1.75 1.75,1.75 0.966,0 1.75,-0.784 1.75,-1.75 V 20.3 h 0.35 C 27.216,20.3 28,19.516 28,18.55 28,17.584 27.216,16.8 26.25,16.8 H 25.9 V 1.75 C 25.9,0.784 25.116,0 24.15,0 23.184,0 22.4,0.784 22.4,1.75 Z"/>
  <path d="M 12.25,11.2 H 11.9 c -0.966,0 -1.75,-0.784 -1.75,-1.75 0,-0.966 0.784,-1.75 1.75,-1.75 h 0.35 V 1.75 C 12.25,0.784 13.034,0 14,0 c 0.966,0 1.75,0.784 1.75,1.75 V 7.7 h 0.35 c 0.966,0 1.75,0.784 1.75,1.75 0,0.966 -0.784,1.75 -1.75,1.75 H 15.75 V 26.25 C 15.75,27.216 14.966,28 14,28 13.034,28 12.25,27.216 12.25,26.25 Z" />
</svg>
