<svg width="100%" height="100%" viewBox="0 0 32 33" style="fill-rule:evenodd;clip-rule:evenodd;fill:var(--white);">
   <path d="m 31.398,28.5198 c 0.802,0.8 0.802,2.1 0,2.9 -0.801,0.8 -2.102,0.8 -2.904,0 -0.005,0 -0.011,-0.01 -0.016,-0.02 l -8.573,-8.32 c -2.02,1.27 -4.429,2.02 -7.015,2.02 -7.115,0 -12.89,-5.63 -12.89,-12.55 0,-6.92 5.775,-12.55 12.89,-12.55 7.114,0 12.89,5.63 12.89,12.55 0,2.96 -1.052,5.67 -2.811,7.82 z M 12.89,3.7998 c 4.827,0 8.747,3.92 8.747,8.75 0,4.83 -3.92,8.75 -8.747,8.75 -4.828,0 -8.747,-3.92 -8.747,-8.75 0,-4.83 3.919,-8.75 8.747,-8.75 z"/>
</svg>
