<svg width="100%" height="100%" viewBox="0 0 32 32">
   <path d="M 16.001613,11.675786 26.781336,0.8757243 c 1.200007,-1.1796678 3.132222,-1.1796678 4.311889,0 1.200007,1.2000069 1.200007,3.1322214 0,4.3118892 L 20.313502,15.987676 31.093225,26.787738 c 1.200007,1.179667 1.200007,3.111882 0,4.311889 -1.179667,1.179668 -3.111882,1.179668 -4.311889,0 L 16.001613,20.299565 5.2015511,31.099627 c -1.2000069,1.179668 -3.1322214,1.179668 -4.3118892,0 -1.2000069,-1.200007 -1.2000069,-3.132222 0,-4.311889 L 11.689724,15.987676 0.8896619,5.1876135 c -1.2000069,-1.1796678 -1.2000069,-3.1118823 0,-4.3118892 1.1796678,-1.1796678 3.1118823,-1.1796678 4.3118892,0 z"/>
</svg>
