<svg width="100%" height="100%" viewBox="0 0 28 28" fill="var(--green-a)">
    <path d="m 25.66937,27.999945 c 1.28647,0 2.33056,-1.044091 2.33056,-2.33056 0,-1.286469 -1.04409,-2.33056 -2.33056,-2.33056 H 9.32224 c -1.2864691,0 -2.33056,1.044091 -2.33056,2.33056 0,1.286469 1.0440909,2.33056 2.33056,2.33056 z"/>
    <path d="M 2.33056,23.338825 C 1.0443822,23.338825 0,24.382916 0,25.669385 c 0,1.286469 1.0443822,2.33056 2.33056,2.33056 1.2861778,0 2.33056,-1.044091 2.33056,-2.33056 0,-1.286469 -1.0443822,-2.33056 -2.33056,-2.33056 z"/>
    <path d="m 25.66937,16.33054 c 1.28647,0 2.33056,-1.044091 2.33056,-2.33056 0,-1.286469 -1.04409,-2.33056 -2.33056,-2.33056 H 9.32224 c -1.2864691,0 -2.33056,1.044091 -2.33056,2.33056 0,1.286469 1.0440909,2.33056 2.33056,2.33056 z"/>
    <path d="M 2.33056,11.66942 C 1.0443822,11.66942 0,12.713511 0,13.99998 c 0,1.286469 1.0443822,2.33056 2.33056,2.33056 1.2861778,0 2.33056,-1.044091 2.33056,-2.33056 0,-1.286469 -1.0443822,-2.33056 -2.33056,-2.33056 z"/>
    <path d="m 25.66937,4.6611348 c 1.28647,0 2.33056,-1.0440909 2.33056,-2.33056 0,-1.2864692 -1.04409,-2.33056004 -2.33056,-2.33056004 H 9.32224 c -1.2864691,0 -2.33056,1.04409084 -2.33056,2.33056004 0,1.2864691 1.0440909,2.33056 2.33056,2.33056 z"/>
    <path d="M 2.33056,1.476e-5 C 1.0443822,1.476e-5 0,1.0441056 0,2.3305748 c 0,1.2864691 1.0443822,2.33056 2.33056,2.33056 1.2861778,0 2.33056,-1.0440909 2.33056,-2.33056 C 4.66112,1.0441056 3.6167378,1.476e-5 2.33056,1.476e-5 Z"/>
</svg>
