<svg width="100%" height="100%" viewBox="0 0 32 32" fill="var(--green-b)">
    <path d="m 16.00004,2.8834358 c 4.272011,0 4.778298,0.016 6.465159,0.092572 1.560004,0.070857 2.406863,0.3325723 2.971436,0.5508586 0.694859,0.2571435 1.323432,0.6662873 1.838862,1.1977172 0.53143,0.5154299 0.940574,1.1440029 1.197717,1.8400046 0.219429,0.5622872 0.480001,1.4102893 0.550859,2.9702932 0.07657,1.6868606 0.09257,2.1931476 0.09257,6.4651586 0,4.272011 -0.016,4.778298 -0.09257,6.466302 -0.07086,1.560004 -0.332573,2.406863 -0.550859,2.970293 -0.538287,1.394289 -1.64229,2.498292 -3.036579,3.036579 -0.56343,0.219429 -1.411432,0.480001 -2.971436,0.550859 -1.685718,0.07657 -2.192005,0.09257 -6.465159,0.09257 -4.273154,0 -4.779441,-0.016 -6.4663019,-0.09257 C 7.9737342,28.953215 7.126875,28.692643 6.563445,28.473214 5.8685861,28.217213 5.2400131,27.80807 4.7234404,27.27664 4.1920105,26.760067 3.7828666,26.131494 3.526866,25.436635 3.3074368,24.873205 3.0468648,24.026346 2.9760074,22.466342 2.8994358,20.778338 2.8834358,20.272051 2.8834358,16.00004 c 0,-4.272011 0.016,-4.778298 0.092572,-6.465159 C 3.0468648,7.9748771 3.3074368,7.1280178 3.526866,6.5645878 3.7828666,5.8685861 4.1920105,5.2400131 4.7234404,4.7245832 5.2400131,4.1931533 5.8685861,3.7840095 6.563445,3.526866 7.126875,3.3085797 7.9748771,3.0468648 9.534881,2.9760074 11.221742,2.8994358 11.728029,2.8834358 16.00004,2.8834358 M 16.00004,0 C 11.654886,0 11.109742,0.01828576 9.4034521,0.09600024 7.6994478,0.17371472 6.5371592,0.44457254 5.5200138,0.8400021 4.4514397,1.2422888 3.4845801,1.8720047 2.685721,2.6845781 1.8720047,3.4845801 1.2422888,4.4525826 0.8400021,5.5188709 0.44342968,6.5371592 0.17371472,7.7005907 0.0971431,9.4034521 0.01828576,11.109742 0,11.654886 0,16.00004 c 0,4.345154 0.01828576,4.890298 0.0971431,6.596588 0.07657162,1.704004 0.34742944,2.866293 0.742859,3.883438 0.4022867,1.068574 1.0320026,2.035434 1.8457189,2.834293 0.7988591,0.813716 1.7657187,1.443432 2.8342928,1.845719 1.0171454,0.395429 2.179434,0.666287 3.8834383,0.742859 1.7062899,0.07771 2.2514339,0.09714 6.5965879,0.09714 4.345154,0 4.891441,-0.01943 6.596588,-0.09714 1.704004,-0.07657 2.866293,-0.34743 3.884581,-0.742859 2.147434,-0.830859 3.84801,-2.531435 4.678869,-4.680012 0.396572,-1.017145 0.666287,-2.179434 0.744002,-3.883438 0.07771,-1.70629 0.096,-2.251434 0.096,-6.596588 0,-4.345154 -0.01829,-4.890298 -0.096,-6.5965879 C 31.826365,7.6994478 31.55665,6.5371592 31.160078,5.5188709 30.757791,4.4514397 30.128075,3.4845801 29.315502,2.685721 28.5155,1.8708618 27.54864,1.2422888 26.480066,0.8400021 25.462921,0.44342968 24.300632,0.17371472 22.596628,0.0971431 20.890338,0.01828576 20.345194,0 16.00004,0 Z"/>
    <path d="m 16.00004,7.7840195 c -4.50744,0 -8.2160205,3.7085805 -8.2160205,8.2160205 0,4.50744 3.7085805,8.216021 8.2160205,8.216021 4.50744,0 8.216021,-3.708581 8.216021,-8.216021 0,-4.50744 -3.708581,-8.2160205 -8.216021,-8.2160205 z m 0,13.5486055 c -2.925722,0 -5.332585,-2.406863 -5.332585,-5.332585 0,-2.925722 2.406863,-5.332585 5.332585,-5.332585 2.925722,0 5.332585,2.406863 5.332585,5.332585 0,2.925722 -2.406863,5.332585 -5.332585,5.332585 z"/>
    <circle cx="24.540632" cy="7.4594474" r="1.9200047"/>
</svg>
