<svg width="100%" height="100%" viewBox="0 0 128 128" fill="var(--green-b)">
    <path d="m 119.9998,112.05708 c 4.4161,0 8.0002,-3.584 8.0002,-8 0,-4.416 -3.5841,-8 -8.0002,-8 H 32.0002 c -4.4161,0 -8.0002,3.584 -8.0002,8 0,4.416 3.5841,8 8.0002,8 z"/>
   <path d="m 8,96.05708 c -4.4154,0 -8,3.584 -8,8 0,4.416 3.5846,8 8,8 4.4154,0 8,-3.584 8,-8 0,-4.416 -3.5846,-8 -8,-8 z"/>
   <path d="M 119.9998,72 C 124.4159,72 128,68.416 128,64 c 0,-4.416 -3.5841,-8 -8.0002,-8 H 32.0002 C 27.5841,56 24,59.584 24,64 c 0,4.416 3.5841,8 8.0002,8 z"/>
   <path d="m 8,56 c -4.4154,0 -8,3.584 -8,8 0,4.416 3.5846,8 8,8 4.4154,0 8,-3.584 8,-8 0,-4.416 -3.5846,-8 -8,-8 z"/>
   <path d="m 119.9998,31.94292 c 4.4161,0 8.0002,-3.584 8.0002,-8 0,-4.416 -3.5841,-8 -8.0002,-8 H 32.0002 c -4.4161,0 -8.0002,3.584 -8.0002,8 0,4.416 3.5841,8 8.0002,8 z"/>
   <path d="m 8,15.94292 c -4.4154,0 -8,3.584 -8,8 0,4.416 3.5846,8 8,8 4.4154,0 8,-3.584 8,-8 0,-4.416 -3.5846,-8 -8,-8 z" />
</svg>
