<svg width="100%" height="100%" viewBox="0 0 32 32">
    <path d="m 16.00003,10.181308 c -3.214816,0 -5.818722,2.603906 -5.818722,5.818722 0,3.214816 2.603906,5.818722 5.818722,5.818722 3.214816,0 5.818722,-2.603906 5.818722,-5.818722 0,-3.214816 -2.603906,-5.818722 -5.818722,-5.818722 z m 13.003662,4.363645 C 28.334071,8.4802796 23.51978,3.6659891 17.455107,2.9963679 V 5.2726e-4 H 14.544953 V 2.9963679 C 8.4802796,3.6659891 3.6659891,8.4802796 2.9963679,14.544953 H 5.2726e-4 v 2.910154 H 2.9963679 C 3.6659891,23.51978 8.4802796,28.334071 14.544953,29.003692 v 2.995841 h 2.910154 V 29.003692 C 23.51978,28.334071 28.334071,23.51978 29.003692,17.455107 h 2.995841 V 14.544953 Z M 16.00003,26.182397 c -5.621962,0 -10.1823673,-4.560405 -10.1823673,-10.182367 0,-5.621962 4.5604053,-10.1823673 10.1823673,-10.1823673 5.621962,0 10.182367,4.5604053 10.182367,10.1823673 0,5.621962 -4.560405,10.182367 -10.182367,10.182367 z"/>
</svg>
