<svg width="100%" height="100%" viewBox="0 0 128 128" style="fill-rule:evenodd;clip-rule:evenodd;fill:var(--green-e);">
    <path
   d="M56.005,12.272C33.498,15.714 15.716,33.496 12.272,56.005C12.182,56.002 12.091,56 12,56L8,56C3.585,56 0,59.585 0,64C0,68.415 3.585,72 8,72L12,72C12.091,72 12.182,71.998 12.272,71.995C15.714,94.502 33.496,112.284 56.005,115.728C56.002,115.818 56,115.909 56,116L56,120C56,124.415 59.585,128 64,128C68.415,128 72,124.415 72,120L72,116C72,115.909 71.998,115.818 71.995,115.728C94.502,112.286 112.284,94.504 115.728,71.995C115.818,71.998 115.909,72 116,72L120,72C124.415,72 128,68.415 128,64C128,59.585 124.415,56 120,56L116,56C115.909,56 115.818,56.002 115.728,56.005C112.286,33.498 94.504,15.716 71.995,12.272C71.998,12.182 72,12.091 72,12L72,8C72,3.585 68.415,0 64,0C59.585,0 56,3.585 56,8L56,12C56,12.091 56.002,12.182 56.005,12.272ZM64,102C43.019,102 26,84.981 26,64C26,43.019 43.019,26 64,26C84.981,26 102,43.019 102,64C102,84.981 84.981,102 64,102Z"/>
    <circle cx="64" cy="64" r="26"/>
</svg>
