<svg width="100%" height="100%" viewBox="0 0 32 25" fill="var(--green-b)">
    <path d="M 28.606929,24.999872 H 3.3931513 C 1.5200038,24.999872 0,23.495695 0,21.642052 V 3.3578212 C 0,1.5041778 1.5200038,1e-6 3.3931513,1e-6 H 28.606929 c 1.873147,0 3.393151,1.5041768 3.393151,3.3578202 V 21.642052 c 0,1.853643 -1.520004,3.35782 -3.393151,3.35782 z m 0.02514,-18.6732808 c -3.526866,3.3001413 -7.054875,6.6002828 -10.580598,9.9004238 -1.333718,1.247449 -3.387437,1.523403 -4.906298,-0.02714 L 3.3680084,6.6387362 V 21.666933 H 28.632072 Z M 26.933782,3.3329401 H 4.7782977 C 8.400021,6.8513567 12.07203,10.31888 15.605753,13.92325 Z"/>
</svg>
