<svg width="100%" height="100%" viewBox="0 0 128 88" fill="var(--white)">
    <path d="M 73.023431,30.4899 V 6.5669 c 0,-2.493 1.411,-4.771 3.644,-5.881 2.232,-1.109 4.9,-0.859 6.887,0.646 l 41.841999,31.695 c 1.639,1.241 2.602,3.178 2.602,5.234 0,2.056 -0.963,3.993 -2.601,5.235 l -41.841999,31.698 c -1.988,1.505 -4.656,1.756 -6.888,0.646 -2.233,-1.109 -3.644,-3.387 -3.644,-5.88 v -23.47 h -57.023 v 32.842 c 0,4.415 -3.585,8 -7.9999996,8 -4.416,0 -8.00000002,-3.585 -8.00000002,-8 v -40.842 c 0,-4.415 3.58400002,-8 8.00000002,-8 z"/>
</svg>
