<svg width="100%" height="100%" viewBox="0 0 32 32" fill="var(--green-b)">
    <path d="m 32.00008,25.273206 c 0,0.409144 -0.07657,0.94286 -0.227429,1.60229 -0.152001,0.658287 -0.310858,1.177146 -0.477716,1.556575 -0.317715,0.756573 -1.242288,1.560004 -2.771435,2.409149 -1.425147,0.772573 -2.834293,1.15886 -4.228582,1.15886 -0.409144,0 -0.805716,-0.02743 -1.193146,-0.08 C 22.716628,31.86751 22.280056,31.772651 21.795483,31.636651 21.31091,31.50065 20.95091,31.389793 20.716623,31.307507 20.481194,31.222935 20.060622,31.068649 19.454906,30.84122 18.848047,30.613791 18.476618,30.476648 18.340617,30.432076 16.856042,29.901789 15.530325,29.273216 14.364607,28.545214 12.424031,27.347497 10.420597,25.715493 8.3520209,23.648059 6.2845871,21.579483 4.6525831,19.576049 3.4548658,17.635473 2.726864,16.469755 2.098291,15.144038 1.5680039,13.659463 1.5234324,13.523462 1.3862892,13.152033 1.15886,12.545174 0.93257376,11.939458 0.7771448,11.518886 0.69257316,11.283457 0.61028724,11.04917 0.50057268,10.68917 0.36457234,10.204597 0.22742914,9.7200243 0.13257176,9.2834518 0.0800002,8.898308 0.02742864,8.5108784 0,8.114306 0,7.7051621 0,6.3108729 0.38628668,4.9017265 1.15886,3.4765801 2.008005,1.9474334 2.8114356,1.0228597 3.5680089,0.70514462 3.9474384,0.53828706 4.4662969,0.37942952 5.1245842,0.22742914 5.7840145,0.07542876 6.3177301,0 6.726874,0 6.9394459,0 7.0983035,0.0228572 7.2045894,0.06742874 7.4765901,0.15885754 7.8788768,0.73485898 8.4091639,1.7954331 8.5760214,2.0834338 8.8034506,2.4914348 9.0914513,3.0228647 9.379452,3.5531517 9.6445955,4.0342958 9.885739,4.4662969 c 0.243429,0.4320011 0.478858,0.8365735 0.705145,1.216003 0.04571,0.059429 0.178286,0.2491435 0.397715,0.5680014 0.219429,0.3177151 0.382858,0.5862872 0.488001,0.8068592 0.106286,0.2194291 0.160001,0.4342868 0.160001,0.6480016 0,0.3028579 -0.216001,0.6811446 -0.648002,1.1360029 -0.432001,0.4537154 -0.901717,0.8708593 -1.4080036,1.250289 -0.5085727,0.378286 -0.9782882,0.77943 -1.4102893,1.203431 -0.4308582,0.425144 -0.6468587,0.772574 -0.6468587,1.045717 0,0.136001 0.037714,0.30743 0.1131431,0.510859 0.075429,0.205714 0.1405718,0.360001 0.1931434,0.466287 0.053714,0.106286 0.1588575,0.288 0.3188579,0.546287 0.1588575,0.257143 0.2457149,0.401144 0.2605721,0.430858 1.1520029,2.076576 2.4697201,3.857152 3.9542951,5.340585 1.484576,1.485718 3.265152,2.803435 5.341728,3.955438 0.02971,0.01486 0.173715,0.101715 0.430858,0.260572 0.258287,0.160001 0.440001,0.265144 0.546287,0.318858 0.106286,0.05257 0.260573,0.117715 0.466287,0.193143 0.203429,0.07543 0.374858,0.113144 0.510859,0.113144 0.273143,0 0.620573,-0.216001 1.045717,-0.646859 0.424001,-0.432001 0.825145,-0.901717 1.203431,-1.410289 0.37943,-0.506287 0.796574,-0.976003 1.250289,-1.408004 0.454858,-0.432001 0.833145,-0.648002 1.136003,-0.648002 0.212572,0 0.428572,0.05371 0.648002,0.160001 0.220571,0.105143 0.489144,0.268572 0.806859,0.488001 0.318858,0.219429 0.508572,0.352001 0.568001,0.397715 0.37943,0.226287 0.784002,0.461716 1.216003,0.705145 0.432001,0.241143 0.913145,0.506287 1.443432,0.794288 0.530287,0.288 0.939431,0.51543 1.227432,0.682287 1.060574,0.530287 1.636575,0.932574 1.728004,1.204575 0.04457,0.106286 0.06743,0.265143 0.06743,0.477715 z"/>
</svg>
