<svg width="100%" height="100%" viewBox="0 0 50 64" fill="var(--green-b)">
    <path d="M 23.879,14.6 15.773,6.494 22.267,0 l 18.765,18.765 -0.18,0.179 0.18,0.179 -18.765,18.765 -6.494,-6.494 8.321,-8.321 c -7.138,0.481 -15.628,9.169 -15.628,16.22 0,7.254 8.987,16.241 16.241,16.241 7.254,0 16.241,-8.987 16.241,-16.241 0,-2.751 -1.293,-5.75 -3.293,-8.415 l 7.054,-6.083 c 2.959,4.073 4.705,9.084 4.705,14.498 C 49.414,52.929 38.343,64 24.707,64 11.071,64 0,52.929 0,39.293 0,25.934 10.626,15.037 23.879,14.6 Z"/>
</svg>
