<svg width="100%" height="100%" viewBox="0 0 32 32" fill="var(--green-b)">

    <path d="M 8.876196,19.123993 13.118844,23.425962 28.67522,7.6520739 24.432572,3.3501044 Z" />
    <path d="m -25.781797,16.717716 h 6.042102 v 3.021057 h -6.042102 z" />
    <path d="m 4.1671162,28.204453 3.5355419,-7.886944 4.2426439,4.30197 z"/>
    <path d="M 16.22,3.5587365 H 1 c -0.55,0 -1,0.4542675 -1,1.01399 V 30.98818 c 0,0.559722 0.45,1.01399 1,1.01399 h 27.78 c 0.55,0 1,-0.454268 1,-1.01399 V 14.766368 h -2 V 29.97419 c 0,0 -25.78,0 -25.78,0 0,0 0,-24.3874735 0,-24.3874735 h 14.22 z"/>
</svg>
