<svg width="100%" height="100%" viewBox="0 0 128 128" fill="var(--green-b)">
    <path d="M117,118.016C117.162,118.65 117.248,119.315 117.248,120C117.248,124.415 113.664,128 109.248,128L8.173,128C8.144,128 8.115,128 8.087,128C8.058,128 8.029,128 8,128C3.585,128 -0,124.415 -0,120L0,27C0,22.585 3.585,19 8,19C8.029,19 8.058,19 8.087,19C8.115,19 8.144,19 8.173,19L56,19C60.415,19 64,22.585 64,27C64,31.415 60.415,35 56,35L16,35L16,112L101,112L101,70C101,65.585 104.585,62 109,62C113.415,62 117,65.585 117,70L117,118.016Z"/>
    <path d="m 114.34441,2.3415857 c 3.12242,-3.12241311 8.19116,-3.1226169 11.31374,-3.57e-5 3.12258,3.1225812 3.12238,8.191323 -4e-5,11.313736 L 55.313486,83.999914 c -3.122413,3.122413 -8.191155,3.122617 -11.313736,3.6e-5 -3.122581,-3.122581 -3.122377,-8.191323 3.6e-5,-11.313736 z"/>
    <circle cx="30" cy="97" r="8"/>
</svg>
