<svg width="100%" height="100%" viewBox="0 0 32 32" style="fill-rule:evenodd;clip-rule:evenodd">
    <path d="m 19.871278,23.0332 c -2.016806,1.276575 -4.421685,2.018291 -7.002961,2.018291 -7.101743,0 -12.86874888,-5.612585 -12.86874888,-12.525745 C -4.3188e-4,5.6125855 5.766574,0 12.868317,0 19.97006,0 25.73589,5.6125855 25.73589,12.525746 c 0,2.950864 -1.05015,5.664014 -2.805888,7.804591 l 9.070334,8.829736 -2.918782,2.840007 z M 12.868317,4.0171529 c 4.82387,0 8.74106,3.812581 8.74106,8.5085931 0,4.697154 -3.91719,8.509735 -8.74106,8.509735 -4.8250457,0 -8.7422351,-3.812581 -8.7422351,-8.509735 0,-4.6960121 3.9171894,-8.5085931 8.7422351,-8.5085931 z" fill="var(--green-c)" />
</svg>
