<svg width="100%" height="100%" viewBox="0 0 128 128" style="fill-rule:evenodd;clip-rule:evenodd;fill:var(--green-c);">
   <path d="M78.381,89.695C70.25,95.55 60.275,99 49.5,99C22.18,99 0,76.82 0,49.5C0,22.18 22.18,0 49.5,0C76.82,0 99,22.18 99,49.5C99,60.275 95.55,70.25 89.695,78.381L125.658,114.345C128.781,117.467 128.781,122.536 125.658,125.658C122.536,128.781 117.467,128.781 114.345,125.658L78.381,89.695ZM49.5,16C67.989,16 83,31.011 83,49.5C83,67.989 67.989,83 49.5,83C31.011,83 16,67.989 16,49.5C16,31.011 31.011,16 49.5,16Z"/>
</svg>
