<svg width="32" height="32" viewBox="0 0 32 32" fill="var(-green-b)">
  <path d="M 9.3850964,11.98895 20.60085,5.6267772 c -0.258322,-1.940772 0.659198,-3.9298198 2.482045,-4.96383567 2.420678,-1.37313785 5.526981,-0.54606722 6.932522,1.84582287 1.40554,2.3918901 0.581403,5.4485155 -1.839275,6.8216534 -1.822847,1.0340152 -4.034835,0.8201912 -5.61635,-0.3699959 L 11.344037,15.322595 c 0.05745,0.429232 0.05685,0.860725 0.0019,1.283932 l 11.248931,6.417095 c 1.57541,-1.182573 3.786649,-1.385695 5.614492,-0.342796 2.427795,1.384863 3.267236,4.445462 1.873645,6.830796 -1.393787,2.385002 -4.495941,3.197065 -6.923398,1.812012 -1.82818,-1.042709 -2.755846,-3.03628 -2.506951,-4.975856 L 9.4047899,19.930968 C 9.2341534,20.059321 9.0529492,20.178111 8.861994,20.286431 6.4413152,21.659569 3.335012,20.832499 1.9294716,18.440608 0.52393128,16.048718 1.348068,12.992093 3.7687467,11.618954 5.5919311,10.584747 7.8035816,10.798764 9.3850964,11.98895 Z"/>
</svg>
