<svg width="100%" height="100%" viewBox="0 0 32 27" fill="var(--green-b)">
    <path d="m 10.064025,26.0075 c 12.076602,0 18.680047,-10.005739 18.680047,-18.6800469 0,-0.2845721 -0.0057,-0.5668585 -0.01943,-0.8491449 C 30.006932,5.5514487 31.121221,4.3948744 32.00008,3.0782997 30.824077,3.6005867 29.557788,3.9525876 28.229785,4.112588 29.585217,3.2988716 30.626362,2.0131541 31.116649,0.48057888 29.848075,1.2325808 28.4435,1.7788678 26.948639,2.0737257 25.749779,0.79829396 24.044632,5.7768e-4 22.155484,5.7768e-4 c -3.625152,0 -6.565731,2.93943592 -6.565731,6.56458782 0,0.5154299 0.05714,1.0160026 0.170286,1.4971466 C 10.302883,7.7868829 5.4651565,5.1743049 2.2274341,1.2017235 1.6628613,2.1720117 1.3382891,3.2988716 1.3382891,4.5023032 c 0,2.27772 1.15886,4.2880107 2.922293,5.4651565 C 3.1817222,9.9343168 2.171434,9.6383161 1.2857175,9.1457434 c -0.00114,0.027429 -0.00114,0.054857 -0.00114,0.084572 0,3.1782936 2.2640057,5.8342996 5.2674418,6.4343016 -0.5508585,0.152 -1.1314314,0.232 -1.7314329,0.232 -0.4217154,0 -0.833145,-0.04114 -1.233146,-0.118857 0.8354307,2.609149 3.2594368,4.50744 6.1325868,4.560011 -2.2468657,1.761148 -5.076587,2.810293 -8.154309,2.810293 C 1.036574,23.148064 0.514287,23.11835 0,23.057778 2.906293,24.92064 6.3565873,26.0075 10.064025,26.0075"/>
</svg>
